<svg id="visual" viewBox="0 0 960 540" width="960" height="540" xmlns="http://www.w3.org/2000/svg" xmlns:xlink="http://www.w3.org/1999/xlink" version="1.1"><g stroke-width="1" stroke-linejoin="bevel"><path d="M453 266L450 244L372 296Z" fill="#091313" stroke="#091313"></path><path d="M372 296L434 308L453 266Z" fill="#0e1c1e" stroke="#0e1c1e"></path><path d="M450 244L359 228L372 296Z" fill="#0b2e35" stroke="#0b2e35"></path><path d="M372 296L433 314L434 308Z" fill="#005c7f" stroke="#005c7f"></path><path d="M434 308L489 335L453 266Z" fill="#005c7f" stroke="#005c7f"></path><path d="M359 228L345 261L372 296Z" fill="#005c7f" stroke="#005c7f"></path><path d="M372 296L414 339L433 314Z" fill="#005c7f" stroke="#005c7f"></path><path d="M450 244L407 183L359 228Z" fill="#0d2529" stroke="#0d2529"></path><path d="M343 320L356 326L372 296Z" fill="#073742" stroke="#073742"></path><path d="M372 296L380 350L414 339Z" fill="#0b2e35" stroke="#0b2e35"></path><path d="M374 163L335 220L359 228Z" fill="#0e1c1e" stroke="#0e1c1e"></path><path d="M359 228L335 220L345 261Z" fill="#040505" stroke="#040505"></path><path d="M345 261L343 320L372 296Z" fill="#0d2529" stroke="#0d2529"></path><path d="M491 196L450 193L450 244Z" fill="#09658f" stroke="#09658f"></path><path d="M450 244L450 193L407 183Z" fill="#073742" stroke="#073742"></path><path d="M450 193L421 180L407 183Z" fill="#005c7f" stroke="#005c7f"></path><path d="M421 180L413 178L407 183Z" fill="#005c7f" stroke="#005c7f"></path><path d="M407 183L374 163L359 228Z" fill="#0d2529" stroke="#0d2529"></path><path d="M300 274L343 320L345 261Z" fill="#024050" stroke="#024050"></path><path d="M366 368L380 350L356 326Z" fill="#091313" stroke="#091313"></path><path d="M356 326L380 350L372 296Z" fill="#040505" stroke="#040505"></path><path d="M335 220L312 243L345 261Z" fill="#00536f" stroke="#00536f"></path><path d="M433 142L374 163L413 178Z" fill="#073742" stroke="#073742"></path><path d="M413 178L374 163L407 183Z" fill="#073742" stroke="#073742"></path><path d="M335 220L306 230L312 243Z" fill="#0e1c1e" stroke="#0e1c1e"></path><path d="M289 175L306 230L335 220Z" fill="#073742" stroke="#073742"></path><path d="M312 243L300 274L345 261Z" fill="#091313" stroke="#091313"></path><path d="M298 271L300 274L312 243Z" fill="#00536f" stroke="#00536f"></path><path d="M277 244L298 271L312 243Z" fill="#0e1c1e" stroke="#0e1c1e"></path><path d="M546 270L450 244L453 266Z" fill="#0d2529" stroke="#0d2529"></path><path d="M546 270L491 196L450 244Z" fill="#0b2e35" stroke="#0b2e35"></path><path d="M450 193L464 167L421 180Z" fill="#005c7f" stroke="#005c7f"></path><path d="M421 180L433 142L413 178Z" fill="#073742" stroke="#073742"></path><path d="M491 196L464 167L450 193Z" fill="#09658f" stroke="#09658f"></path><path d="M414 339L489 335L433 314Z" fill="#09658f" stroke="#09658f"></path><path d="M433 314L489 335L434 308Z" fill="#0b2e35" stroke="#0b2e35"></path><path d="M480 418L489 335L414 339Z" fill="#005c7f" stroke="#005c7f"></path><path d="M343 365L366 368L356 326Z" fill="#0b2e35" stroke="#0b2e35"></path><path d="M380 350L397 415L414 339Z" fill="#040505" stroke="#040505"></path><path d="M343 365L356 326L343 320Z" fill="#0d2529" stroke="#0d2529"></path><path d="M298 329L343 320L300 274Z" fill="#024050" stroke="#024050"></path><path d="M298 329L343 365L343 320Z" fill="#00536f" stroke="#00536f"></path><path d="M464 167L433 142L421 180Z" fill="#00536f" stroke="#00536f"></path><path d="M517 368L508 334L489 335Z" fill="#073742" stroke="#073742"></path><path d="M489 335L508 334L453 266Z" fill="#073742" stroke="#073742"></path><path d="M275 320L298 329L300 274Z" fill="#005c7f" stroke="#005c7f"></path><path d="M289 175L277 244L306 230Z" fill="#091313" stroke="#091313"></path><path d="M306 230L277 244L312 243Z" fill="#073742" stroke="#073742"></path><path d="M266 307L275 320L300 274Z" fill="#005c7f" stroke="#005c7f"></path><path d="M373 107L329 156L374 163Z" fill="#005c7f" stroke="#005c7f"></path><path d="M374 163L329 156L335 220Z" fill="#024050" stroke="#024050"></path><path d="M464 167L438 125L433 142Z" fill="#0e1c1e" stroke="#0e1c1e"></path><path d="M433 142L373 107L374 163Z" fill="#091313" stroke="#091313"></path><path d="M494 144L438 125L464 167Z" fill="#091313" stroke="#091313"></path><path d="M298 329L320 373L343 365Z" fill="#024050" stroke="#024050"></path><path d="M341 403L376 403L366 368Z" fill="#024050" stroke="#024050"></path><path d="M508 334L546 270L453 266Z" fill="#024050" stroke="#024050"></path><path d="M266 307L300 274L298 271Z" fill="#005c7f" stroke="#005c7f"></path><path d="M298 329L251 370L320 373Z" fill="#024050" stroke="#024050"></path><path d="M341 403L366 368L343 365Z" fill="#09658f" stroke="#09658f"></path><path d="M366 368L376 403L380 350Z" fill="#091313" stroke="#091313"></path><path d="M329 156L289 175L335 220Z" fill="#0e1c1e" stroke="#0e1c1e"></path><path d="M289 175L260 246L277 244Z" fill="#004a5f" stroke="#004a5f"></path><path d="M277 244L260 246L298 271Z" fill="#073742" stroke="#073742"></path><path d="M260 246L266 307L298 271Z" fill="#0e1c1e" stroke="#0e1c1e"></path><path d="M562 173L494 144L491 196Z" fill="#040505" stroke="#040505"></path><path d="M491 196L494 144L464 167Z" fill="#073742" stroke="#073742"></path><path d="M376 434L397 415L376 403Z" fill="#024050" stroke="#024050"></path><path d="M376 403L397 415L380 350Z" fill="#005c7f" stroke="#005c7f"></path><path d="M480 418L517 368L489 335Z" fill="#040505" stroke="#040505"></path><path d="M508 334L556 298L546 270Z" fill="#005c7f" stroke="#005c7f"></path><path d="M579 336L556 298L508 334Z" fill="#0d2529" stroke="#0d2529"></path><path d="M341 411L341 403L320 373Z" fill="#005c7f" stroke="#005c7f"></path><path d="M320 373L341 403L343 365Z" fill="#004a5f" stroke="#004a5f"></path><path d="M438 125L373 107L433 142Z" fill="#00536f" stroke="#00536f"></path><path d="M329 156L282 123L289 175Z" fill="#091313" stroke="#091313"></path><path d="M556 298L567 256L546 270Z" fill="#0e1c1e" stroke="#0e1c1e"></path><path d="M546 270L567 256L491 196Z" fill="#040505" stroke="#040505"></path><path d="M244 415L341 411L320 373Z" fill="#00536f" stroke="#00536f"></path><path d="M341 403L341 411L376 403Z" fill="#040505" stroke="#040505"></path><path d="M376 434L406 425L397 415Z" fill="#005c7f" stroke="#005c7f"></path><path d="M397 415L480 418L414 339Z" fill="#040505" stroke="#040505"></path><path d="M406 425L480 418L397 415Z" fill="#00536f" stroke="#00536f"></path><path d="M373 107L326 106L329 156Z" fill="#0b2e35" stroke="#0b2e35"></path><path d="M341 411L376 434L376 403Z" fill="#091313" stroke="#091313"></path><path d="M502 510L515 483L480 418Z" fill="#091313" stroke="#091313"></path><path d="M438 125L392 85L373 107Z" fill="#00536f" stroke="#00536f"></path><path d="M373 107L326 95L326 106Z" fill="#0d2529" stroke="#0d2529"></path><path d="M384 69L392 85L414 23Z" fill="#0e1c1e" stroke="#0e1c1e"></path><path d="M567 256L562 173L491 196Z" fill="#024050" stroke="#024050"></path><path d="M451 33L392 85L438 125Z" fill="#09658f" stroke="#09658f"></path><path d="M384 69L326 95L373 107Z" fill="#024050" stroke="#024050"></path><path d="M326 106L282 123L329 156Z" fill="#0b2e35" stroke="#0b2e35"></path><path d="M280 81L282 123L326 106Z" fill="#0e1c1e" stroke="#0e1c1e"></path><path d="M153 234L181 282L260 246Z" fill="#040505" stroke="#040505"></path><path d="M266 307L251 370L275 320Z" fill="#004a5f" stroke="#004a5f"></path><path d="M275 320L251 370L298 329Z" fill="#024050" stroke="#024050"></path><path d="M341 411L368 466L376 434Z" fill="#091313" stroke="#091313"></path><path d="M190 358L251 370L266 307Z" fill="#00536f" stroke="#00536f"></path><path d="M517 368L579 336L508 334Z" fill="#040505" stroke="#040505"></path><path d="M556 298L637 327L567 256Z" fill="#005c7f" stroke="#005c7f"></path><path d="M567 256L596 203L562 173Z" fill="#00536f" stroke="#00536f"></path><path d="M581 346L579 336L517 368Z" fill="#004a5f" stroke="#004a5f"></path><path d="M533 105L438 125L494 144Z" fill="#024050" stroke="#024050"></path><path d="M392 85L384 69L373 107Z" fill="#073742" stroke="#073742"></path><path d="M539 429L581 346L517 368Z" fill="#00536f" stroke="#00536f"></path><path d="M636 221L596 203L567 256Z" fill="#005c7f" stroke="#005c7f"></path><path d="M621 120L562 139L562 173Z" fill="#024050" stroke="#024050"></path><path d="M562 173L562 139L494 144Z" fill="#00536f" stroke="#00536f"></path><path d="M637 327L556 298L579 336Z" fill="#091313" stroke="#091313"></path><path d="M562 139L533 105L494 144Z" fill="#024050" stroke="#024050"></path><path d="M355 484L368 466L341 411Z" fill="#00536f" stroke="#00536f"></path><path d="M376 434L368 466L406 425Z" fill="#004a5f" stroke="#004a5f"></path><path d="M544 449L539 429L515 483Z" fill="#00536f" stroke="#00536f"></path><path d="M480 418L539 429L517 368Z" fill="#091313" stroke="#091313"></path><path d="M616 402L602 350L581 346Z" fill="#0b2e35" stroke="#0b2e35"></path><path d="M581 346L602 350L579 336Z" fill="#00536f" stroke="#00536f"></path><path d="M356 0L280 81L326 95Z" fill="#005c7f" stroke="#005c7f"></path><path d="M326 95L280 81L326 106Z" fill="#0b2e35" stroke="#0b2e35"></path><path d="M188 166L260 246L289 175Z" fill="#0e1c1e" stroke="#0e1c1e"></path><path d="M190 358L244 415L251 370Z" fill="#005c7f" stroke="#005c7f"></path><path d="M251 370L244 415L320 373Z" fill="#0b2e35" stroke="#0b2e35"></path><path d="M223 126L289 175L282 123Z" fill="#024050" stroke="#024050"></path><path d="M260 246L181 282L266 307Z" fill="#024050" stroke="#024050"></path><path d="M553 79L533 105L571 84Z" fill="#004a5f" stroke="#004a5f"></path><path d="M553 79L541 80L533 105Z" fill="#024050" stroke="#024050"></path><path d="M533 105L451 33L438 125Z" fill="#0b2e35" stroke="#0b2e35"></path><path d="M228 103L223 126L282 123Z" fill="#024050" stroke="#024050"></path><path d="M250 480L355 484L341 411Z" fill="#0b2e35" stroke="#0b2e35"></path><path d="M515 483L539 429L480 418Z" fill="#00536f" stroke="#00536f"></path><path d="M541 80L451 33L533 105Z" fill="#024050" stroke="#024050"></path><path d="M384 69L356 0L326 95Z" fill="#040505" stroke="#040505"></path><path d="M374 501L406 425L368 466Z" fill="#0d2529" stroke="#0d2529"></path><path d="M616 402L623 364L602 350Z" fill="#091313" stroke="#091313"></path><path d="M651 267L636 221L567 256Z" fill="#073742" stroke="#073742"></path><path d="M596 203L621 120L562 173Z" fill="#005c7f" stroke="#005c7f"></path><path d="M571 84L533 105L562 139Z" fill="#00536f" stroke="#00536f"></path><path d="M541 80L543 32L451 33Z" fill="#09658f" stroke="#09658f"></path><path d="M181 282L190 358L266 307Z" fill="#005c7f" stroke="#005c7f"></path><path d="M223 126L188 166L289 175Z" fill="#0b2e35" stroke="#0b2e35"></path><path d="M280 81L228 103L282 123Z" fill="#091313" stroke="#091313"></path><path d="M223 126L189 142L188 166Z" fill="#024050" stroke="#024050"></path><path d="M156 286L169 291L181 282Z" fill="#040505" stroke="#040505"></path><path d="M181 282L169 291L190 358Z" fill="#091313" stroke="#091313"></path><path d="M451 33L414 23L392 85Z" fill="#00536f" stroke="#00536f"></path><path d="M190 0L188 114L228 103Z" fill="#0d2529" stroke="#0d2529"></path><path d="M616 402L581 346L539 429Z" fill="#073742" stroke="#073742"></path><path d="M602 350L637 327L579 336Z" fill="#0e1c1e" stroke="#0e1c1e"></path><path d="M623 364L637 327L602 350Z" fill="#09658f" stroke="#09658f"></path><path d="M325 540L374 501L355 484Z" fill="#005c7f" stroke="#005c7f"></path><path d="M355 484L374 501L368 466Z" fill="#024050" stroke="#024050"></path><path d="M621 120L571 84L562 139Z" fill="#004a5f" stroke="#004a5f"></path><path d="M428 -20L414 23L451 33Z" fill="#024050" stroke="#024050"></path><path d="M188 166L170 195L260 246Z" fill="#0b2e35" stroke="#0b2e35"></path><path d="M637 327L651 267L567 256Z" fill="#024050" stroke="#024050"></path><path d="M188 114L189 142L223 126Z" fill="#073742" stroke="#073742"></path><path d="M188 166L157 155L170 195Z" fill="#024050" stroke="#024050"></path><path d="M502 510L480 418L406 425Z" fill="#0d2529" stroke="#0d2529"></path><path d="M544 449L616 402L539 429Z" fill="#091313" stroke="#091313"></path><path d="M143 269L156 286L181 282Z" fill="#0d2529" stroke="#0d2529"></path><path d="M169 291L159 341L190 358Z" fill="#00536f" stroke="#00536f"></path><path d="M651 267L652 214L636 221Z" fill="#09658f" stroke="#09658f"></path><path d="M636 221L652 214L596 203Z" fill="#005c7f" stroke="#005c7f"></path><path d="M637 327L657 275L651 267Z" fill="#073742" stroke="#073742"></path><path d="M651 267L673 270L652 214Z" fill="#004a5f" stroke="#004a5f"></path><path d="M673 270L657 275L674 311Z" fill="#091313" stroke="#091313"></path><path d="M621 500L616 402L544 449Z" fill="#09658f" stroke="#09658f"></path><path d="M623 364L647 350L637 327Z" fill="#0e1c1e" stroke="#0e1c1e"></path><path d="M117 222L153 234L170 195Z" fill="#040505" stroke="#040505"></path><path d="M170 195L153 234L260 246Z" fill="#09658f" stroke="#09658f"></path><path d="M673 363L647 350L623 364Z" fill="#005c7f" stroke="#005c7f"></path><path d="M652 214L621 120L596 203Z" fill="#00536f" stroke="#00536f"></path><path d="M129 307L159 341L169 291Z" fill="#005c7f" stroke="#005c7f"></path><path d="M163 451L250 480L244 415Z" fill="#024050" stroke="#024050"></path><path d="M129 307L169 291L156 286Z" fill="#0b2e35" stroke="#0b2e35"></path><path d="M543 32L541 80L553 79Z" fill="#00536f" stroke="#00536f"></path><path d="M428 -20L406 0L414 23Z" fill="#040505" stroke="#040505"></path><path d="M414 23L360 0L384 69Z" fill="#0b2e35" stroke="#0b2e35"></path><path d="M153 234L143 269L181 282Z" fill="#040505" stroke="#040505"></path><path d="M228 103L188 114L223 126Z" fill="#09658f" stroke="#09658f"></path><path d="M189 142L157 155L188 166Z" fill="#004a5f" stroke="#004a5f"></path><path d="M245 0L228 103L280 81Z" fill="#00536f" stroke="#00536f"></path><path d="M621 120L599 76L571 84Z" fill="#0e1c1e" stroke="#0e1c1e"></path><path d="M652 214L628 118L621 120Z" fill="#0e1c1e" stroke="#0e1c1e"></path><path d="M406 0L360 0L414 23Z" fill="#0e1c1e" stroke="#0e1c1e"></path><path d="M360 0L356 0L384 69Z" fill="#004a5f" stroke="#004a5f"></path><path d="M374 501L502 510L406 425Z" fill="#091313" stroke="#091313"></path><path d="M515 483L572 540L544 449Z" fill="#0b2e35" stroke="#0b2e35"></path><path d="M502 510L514 505L515 483Z" fill="#0d2529" stroke="#0d2529"></path><path d="M599 76L543 32L571 84Z" fill="#091313" stroke="#091313"></path><path d="M571 84L543 32L553 79Z" fill="#0b2e35" stroke="#0b2e35"></path><path d="M674 311L657 275L637 327Z" fill="#0b2e35" stroke="#0b2e35"></path><path d="M657 275L673 270L651 267Z" fill="#0e1c1e" stroke="#0e1c1e"></path><path d="M652 214L686 190L628 118Z" fill="#004a5f" stroke="#004a5f"></path><path d="M628 118L599 76L621 120Z" fill="#004a5f" stroke="#004a5f"></path><path d="M163 451L244 415L190 358Z" fill="#024050" stroke="#024050"></path><path d="M244 415L250 480L341 411Z" fill="#005c7f" stroke="#005c7f"></path><path d="M188 114L157 155L189 142Z" fill="#0e1c1e" stroke="#0e1c1e"></path><path d="M153 234L117 222L143 269Z" fill="#091313" stroke="#091313"></path><path d="M677 337L637 327L647 350Z" fill="#004a5f" stroke="#004a5f"></path><path d="M677 337L674 311L637 327Z" fill="#024050" stroke="#024050"></path><path d="M543 32L495 0L451 33Z" fill="#0b2e35" stroke="#0b2e35"></path><path d="M543 32L501 0L495 0Z" fill="#0d2529" stroke="#0d2529"></path><path d="M61 272L129 307L143 269Z" fill="#073742" stroke="#073742"></path><path d="M143 269L129 307L156 286Z" fill="#00536f" stroke="#00536f"></path><path d="M109 383L163 451L190 358Z" fill="#09658f" stroke="#09658f"></path><path d="M571 -1L508 0L543 32Z" fill="#040505" stroke="#040505"></path><path d="M543 32L508 0L501 0Z" fill="#005c7f" stroke="#005c7f"></path><path d="M673 363L677 337L647 350Z" fill="#005c7f" stroke="#005c7f"></path><path d="M691 200L652 214L673 270Z" fill="#0e1c1e" stroke="#0e1c1e"></path><path d="M495 0L428 -20L451 33Z" fill="#004a5f" stroke="#004a5f"></path><path d="M406 0L428 -20L360 0Z" fill="#0b2e35" stroke="#0b2e35"></path><path d="M360 0L428 -20L356 0Z" fill="#004a5f" stroke="#004a5f"></path><path d="M501 0L428 -20L495 0Z" fill="#040505" stroke="#040505"></path><path d="M508 0L428 -20L501 0Z" fill="#040505" stroke="#040505"></path><path d="M616 402L673 363L623 364Z" fill="#091313" stroke="#091313"></path><path d="M705 391L673 363L616 402Z" fill="#09658f" stroke="#09658f"></path><path d="M691 200L673 270L734 241Z" fill="#09658f" stroke="#09658f"></path><path d="M691 200L686 190L652 214Z" fill="#073742" stroke="#073742"></path><path d="M628 118L660 101L599 76Z" fill="#005c7f" stroke="#005c7f"></path><path d="M294 540L325 540L355 484Z" fill="#0b2e35" stroke="#0b2e35"></path><path d="M397 579L510 540L502 510Z" fill="#0e1c1e" stroke="#0e1c1e"></path><path d="M157 155L117 222L170 195Z" fill="#0b2e35" stroke="#0b2e35"></path><path d="M734 241L673 270L674 311Z" fill="#024050" stroke="#024050"></path><path d="M691 140L663 113L628 118Z" fill="#073742" stroke="#073742"></path><path d="M594 0L571 -1L543 32Z" fill="#09658f" stroke="#09658f"></path><path d="M691 140L628 118L686 190Z" fill="#091313" stroke="#091313"></path><path d="M502 510L510 540L514 505Z" fill="#0b2e35" stroke="#0b2e35"></path><path d="M514 505L551 540L515 483Z" fill="#040505" stroke="#040505"></path><path d="M397 579L502 510L374 501Z" fill="#09658f" stroke="#09658f"></path><path d="M157 155L109 219L117 222Z" fill="#09658f" stroke="#09658f"></path><path d="M117 222L68 250L143 269Z" fill="#091313" stroke="#091313"></path><path d="M250 480L294 540L355 484Z" fill="#040505" stroke="#040505"></path><path d="M721 115L660 101L663 113Z" fill="#073742" stroke="#073742"></path><path d="M663 113L660 101L628 118Z" fill="#091313" stroke="#091313"></path><path d="M246 540L281 540L250 480Z" fill="#004a5f" stroke="#004a5f"></path><path d="M250 480L281 540L294 540Z" fill="#0d2529" stroke="#0d2529"></path><path d="M510 540L532 540L514 505Z" fill="#073742" stroke="#073742"></path><path d="M215 -20L245 0L356 0Z" fill="#0d2529" stroke="#0d2529"></path><path d="M356 0L245 0L280 81Z" fill="#09658f" stroke="#09658f"></path><path d="M188 114L119 130L157 155Z" fill="#091313" stroke="#091313"></path><path d="M157 155L119 130L109 219Z" fill="#00536f" stroke="#00536f"></path><path d="M109 383L190 358L159 341Z" fill="#040505" stroke="#040505"></path><path d="M61 272L104 327L129 307Z" fill="#0e1c1e" stroke="#0e1c1e"></path><path d="M129 307L104 327L159 341Z" fill="#005c7f" stroke="#005c7f"></path><path d="M594 0L543 32L599 76Z" fill="#0e1c1e" stroke="#0e1c1e"></path><path d="M508 0L571 -1L428 -20Z" fill="#040505" stroke="#040505"></path><path d="M720 122L691 140L686 190Z" fill="#024050" stroke="#024050"></path><path d="M691 140L691 132L663 113Z" fill="#09658f" stroke="#09658f"></path><path d="M678 0L594 0L599 76Z" fill="#040505" stroke="#040505"></path><path d="M532 540L551 540L514 505Z" fill="#024050" stroke="#024050"></path><path d="M124 93L119 130L188 114Z" fill="#0e1c1e" stroke="#0e1c1e"></path><path d="M281 540L397 579L294 540Z" fill="#005c7f" stroke="#005c7f"></path><path d="M294 540L397 579L325 540Z" fill="#004a5f" stroke="#004a5f"></path><path d="M325 540L397 579L374 501Z" fill="#091313" stroke="#091313"></path><path d="M510 540L588 583L532 540Z" fill="#040505" stroke="#040505"></path><path d="M532 540L588 583L551 540Z" fill="#004a5f" stroke="#004a5f"></path><path d="M104 327L109 383L159 341Z" fill="#073742" stroke="#073742"></path><path d="M218 550L246 540L199 540Z" fill="#073742" stroke="#073742"></path><path d="M281 540L218 550L397 579Z" fill="#0e1c1e" stroke="#0e1c1e"></path><path d="M572 540L621 500L544 449Z" fill="#024050" stroke="#024050"></path><path d="M702 55L599 76L660 101Z" fill="#0b2e35" stroke="#0b2e35"></path><path d="M571 -1L594 0L428 -20Z" fill="#0e1c1e" stroke="#0e1c1e"></path><path d="M571 541L572 540L551 540Z" fill="#091313" stroke="#091313"></path><path d="M551 540L572 540L515 483Z" fill="#073742" stroke="#073742"></path><path d="M588 583L571 541L551 540Z" fill="#0d2529" stroke="#0d2529"></path><path d="M572 540L604 530L621 500Z" fill="#0e1c1e" stroke="#0e1c1e"></path><path d="M673 363L732 374L677 337Z" fill="#0e1c1e" stroke="#0e1c1e"></path><path d="M766 343L734 241L674 311Z" fill="#0e1c1e" stroke="#0e1c1e"></path><path d="M691 200L720 122L686 190Z" fill="#09658f" stroke="#09658f"></path><path d="M691 140L720 122L691 132Z" fill="#00536f" stroke="#00536f"></path><path d="M707 454L705 391L616 402Z" fill="#0e1c1e" stroke="#0e1c1e"></path><path d="M186 0L124 93L188 114Z" fill="#040505" stroke="#040505"></path><path d="M766 343L674 311L677 337Z" fill="#024050" stroke="#024050"></path><path d="M588 583L604 530L572 540Z" fill="#040505" stroke="#040505"></path><path d="M744 395L732 374L705 391Z" fill="#0e1c1e" stroke="#0e1c1e"></path><path d="M121 450L139 464L163 451Z" fill="#09658f" stroke="#09658f"></path><path d="M163 451L199 540L250 480Z" fill="#073742" stroke="#073742"></path><path d="M67 212L68 250L109 219Z" fill="#0e1c1e" stroke="#0e1c1e"></path><path d="M109 219L68 250L117 222Z" fill="#0d2529" stroke="#0d2529"></path><path d="M51 374L88 406L109 383Z" fill="#0b2e35" stroke="#0b2e35"></path><path d="M67 212L109 219L119 130Z" fill="#09658f" stroke="#09658f"></path><path d="M215 -20L190 0L245 0Z" fill="#024050" stroke="#024050"></path><path d="M245 0L190 0L228 103Z" fill="#0b2e35" stroke="#0b2e35"></path><path d="M428 -20L215 -20L356 0Z" fill="#073742" stroke="#073742"></path><path d="M215 -20L186 0L190 0Z" fill="#0e1c1e" stroke="#0e1c1e"></path><path d="M190 0L186 0L188 114Z" fill="#09658f" stroke="#09658f"></path><path d="M100 421L163 451L109 383Z" fill="#0e1c1e" stroke="#0e1c1e"></path><path d="M100 421L121 450L163 451Z" fill="#040505" stroke="#040505"></path><path d="M43 209L67 212L27 165Z" fill="#004a5f" stroke="#004a5f"></path><path d="M86 486L144 483L139 464Z" fill="#0e1c1e" stroke="#0e1c1e"></path><path d="M139 464L144 483L163 451Z" fill="#024050" stroke="#024050"></path><path d="M199 540L246 540L250 480Z" fill="#004a5f" stroke="#004a5f"></path><path d="M246 540L218 550L281 540Z" fill="#0b2e35" stroke="#0b2e35"></path><path d="M778 209L720 122L691 200Z" fill="#040505" stroke="#040505"></path><path d="M691 132L721 115L663 113Z" fill="#073742" stroke="#073742"></path><path d="M29 256L61 272L68 250Z" fill="#005c7f" stroke="#005c7f"></path><path d="M68 250L61 272L143 269Z" fill="#005c7f" stroke="#005c7f"></path><path d="M121 450L86 486L139 464Z" fill="#024050" stroke="#024050"></path><path d="M88 406L100 421L109 383Z" fill="#073742" stroke="#073742"></path><path d="M707 454L616 402L621 500Z" fill="#005c7f" stroke="#005c7f"></path><path d="M705 391L732 374L673 363Z" fill="#0e1c1e" stroke="#0e1c1e"></path><path d="M144 483L199 540L163 451Z" fill="#00536f" stroke="#00536f"></path><path d="M806 100L721 115L720 122Z" fill="#040505" stroke="#040505"></path><path d="M720 122L721 115L691 132Z" fill="#0d2529" stroke="#0d2529"></path><path d="M100 421L87 435L121 450Z" fill="#004a5f" stroke="#004a5f"></path><path d="M51 374L109 383L104 327Z" fill="#0d2529" stroke="#0d2529"></path><path d="M652 525L707 454L621 500Z" fill="#073742" stroke="#073742"></path><path d="M588 583L631 540L604 530Z" fill="#040505" stroke="#040505"></path><path d="M604 530L631 540L621 500Z" fill="#0b2e35" stroke="#0b2e35"></path><path d="M588 583L572 540L571 541Z" fill="#005c7f" stroke="#005c7f"></path><path d="M631 540L652 525L621 500Z" fill="#09658f" stroke="#09658f"></path><path d="M721 115L702 55L660 101Z" fill="#00536f" stroke="#00536f"></path><path d="M67 443L87 435L88 406Z" fill="#00536f" stroke="#00536f"></path><path d="M88 406L87 435L100 421Z" fill="#091313" stroke="#091313"></path><path d="M144 483L142 540L199 540Z" fill="#024050" stroke="#024050"></path><path d="M707 454L744 395L705 391Z" fill="#073742" stroke="#073742"></path><path d="M732 374L766 343L677 337Z" fill="#091313" stroke="#091313"></path><path d="M588 583L640 540L631 540Z" fill="#0b2e35" stroke="#0b2e35"></path><path d="M631 540L640 540L652 525Z" fill="#0b2e35" stroke="#0b2e35"></path><path d="M27 165L67 212L119 130Z" fill="#00536f" stroke="#00536f"></path><path d="M67 212L43 209L68 250Z" fill="#0e1c1e" stroke="#0e1c1e"></path><path d="M61 272L51 374L104 327Z" fill="#09658f" stroke="#09658f"></path><path d="M54 106L119 130L124 93Z" fill="#09658f" stroke="#09658f"></path><path d="M761 365L766 343L732 374Z" fill="#00536f" stroke="#00536f"></path><path d="M734 241L778 209L691 200Z" fill="#073742" stroke="#073742"></path><path d="M397 579L588 583L510 540Z" fill="#040505" stroke="#040505"></path><path d="M744 395L761 365L732 374Z" fill="#004a5f" stroke="#004a5f"></path><path d="M0 325L51 374L61 272Z" fill="#00536f" stroke="#00536f"></path><path d="M43 209L29 256L68 250Z" fill="#091313" stroke="#091313"></path><path d="M797 215L778 209L734 241Z" fill="#091313" stroke="#091313"></path><path d="M782 20L741 10L702 55Z" fill="#0e1c1e" stroke="#0e1c1e"></path><path d="M741 10L678 0L702 55Z" fill="#024050" stroke="#024050"></path><path d="M702 55L678 0L599 76Z" fill="#00536f" stroke="#00536f"></path><path d="M594 0L678 0L428 -20Z" fill="#0d2529" stroke="#0d2529"></path><path d="M588 583L661 540L640 540Z" fill="#004a5f" stroke="#004a5f"></path><path d="M640 540L661 540L652 525Z" fill="#005c7f" stroke="#005c7f"></path><path d="M652 525L729 540L707 454Z" fill="#005c7f" stroke="#005c7f"></path><path d="M707 454L761 410L744 395Z" fill="#0e1c1e" stroke="#0e1c1e"></path><path d="M215 -20L152 -23L186 0Z" fill="#040505" stroke="#040505"></path><path d="M186 0L152 -23L124 93Z" fill="#0d2529" stroke="#0d2529"></path><path d="M428 -20L152 -23L215 -20Z" fill="#09658f" stroke="#09658f"></path><path d="M86 486L142 540L144 483Z" fill="#040505" stroke="#040505"></path><path d="M199 540L142 540L218 550Z" fill="#040505" stroke="#040505"></path><path d="M218 550L69 549L397 579Z" fill="#00536f" stroke="#00536f"></path><path d="M86 486L121 450L87 435Z" fill="#004a5f" stroke="#004a5f"></path><path d="M51 374L67 443L88 406Z" fill="#0d2529" stroke="#0d2529"></path><path d="M40 89L54 106L124 93Z" fill="#040505" stroke="#040505"></path><path d="M43 209L0 170L29 256Z" fill="#040505" stroke="#040505"></path><path d="M840 335L809 289L766 343Z" fill="#0d2529" stroke="#0d2529"></path><path d="M809 289L797 215L734 241Z" fill="#040505" stroke="#040505"></path><path d="M744 395L761 410L761 365Z" fill="#004a5f" stroke="#004a5f"></path><path d="M773 451L761 410L707 454Z" fill="#0d2529" stroke="#0d2529"></path><path d="M54 106L27 165L119 130Z" fill="#0b2e35" stroke="#0b2e35"></path><path d="M67 443L86 486L87 435Z" fill="#024050" stroke="#024050"></path><path d="M809 289L734 241L766 343Z" fill="#0e1c1e" stroke="#0e1c1e"></path><path d="M778 209L806 100L720 122Z" fill="#005c7f" stroke="#005c7f"></path><path d="M70 0L40 89L124 93Z" fill="#0d2529" stroke="#0d2529"></path><path d="M54 106L4 155L27 165Z" fill="#09658f" stroke="#09658f"></path><path d="M809 402L766 343L761 365Z" fill="#004a5f" stroke="#004a5f"></path><path d="M0 170L43 209L27 165Z" fill="#073742" stroke="#073742"></path><path d="M0 170L0 286L29 256Z" fill="#004a5f" stroke="#004a5f"></path><path d="M29 256L0 286L61 272Z" fill="#09658f" stroke="#09658f"></path><path d="M51 374L0 399L67 443Z" fill="#005c7f" stroke="#005c7f"></path><path d="M0 286L0 325L61 272Z" fill="#09658f" stroke="#09658f"></path><path d="M69 549L88 540L86 486Z" fill="#005c7f" stroke="#005c7f"></path><path d="M762 499L773 451L707 454Z" fill="#040505" stroke="#040505"></path><path d="M761 410L795 406L761 365Z" fill="#040505" stroke="#040505"></path><path d="M40 89L4 155L54 106Z" fill="#040505" stroke="#040505"></path><path d="M4 155L0 170L27 165Z" fill="#040505" stroke="#040505"></path><path d="M773 451L795 406L761 410Z" fill="#0b2e35" stroke="#0b2e35"></path><path d="M-29 86L0 160L4 155Z" fill="#0e1c1e" stroke="#0e1c1e"></path><path d="M4 155L0 160L0 170Z" fill="#0d2529" stroke="#0d2529"></path><path d="M833 221L818 196L797 215Z" fill="#024050" stroke="#024050"></path><path d="M797 215L818 196L778 209Z" fill="#0e1c1e" stroke="#0e1c1e"></path><path d="M0 325L0 365L51 374Z" fill="#024050" stroke="#024050"></path><path d="M0 365L0 369L51 374Z" fill="#040505" stroke="#040505"></path><path d="M782 20L702 55L813 76Z" fill="#00536f" stroke="#00536f"></path><path d="M69 549L86 486L8 519Z" fill="#09658f" stroke="#09658f"></path><path d="M86 486L88 540L142 540Z" fill="#00536f" stroke="#00536f"></path><path d="M142 540L69 549L218 550Z" fill="#024050" stroke="#024050"></path><path d="M152 -23L70 0L124 93Z" fill="#00536f" stroke="#00536f"></path><path d="M40 89L-29 86L4 155Z" fill="#040505" stroke="#040505"></path><path d="M844 267L831 231L809 289Z" fill="#0e1c1e" stroke="#0e1c1e"></path><path d="M809 289L831 231L797 215Z" fill="#0b2e35" stroke="#0b2e35"></path><path d="M588 583L729 540L661 540Z" fill="#040505" stroke="#040505"></path><path d="M661 540L729 540L652 525Z" fill="#0d2529" stroke="#0d2529"></path><path d="M831 231L831 225L797 215Z" fill="#0e1c1e" stroke="#0e1c1e"></path><path d="M782 20L745 0L741 10Z" fill="#0d2529" stroke="#0d2529"></path><path d="M773 451L809 402L795 406Z" fill="#024050" stroke="#024050"></path><path d="M795 406L809 402L761 365Z" fill="#091313" stroke="#091313"></path><path d="M846 387L870 484L893 409Z" fill="#073742" stroke="#073742"></path><path d="M0 369L0 399L51 374Z" fill="#073742" stroke="#073742"></path><path d="M806 100L778 209L818 196Z" fill="#040505" stroke="#040505"></path><path d="M741 10L745 0L678 0Z" fill="#0e1c1e" stroke="#0e1c1e"></path><path d="M678 0L745 0L428 -20Z" fill="#004a5f" stroke="#004a5f"></path><path d="M729 540L762 499L707 454Z" fill="#09658f" stroke="#09658f"></path><path d="M831 231L833 221L831 225Z" fill="#0e1c1e" stroke="#0e1c1e"></path><path d="M831 225L833 221L797 215Z" fill="#0e1c1e" stroke="#0e1c1e"></path><path d="M884 214L833 221L831 231Z" fill="#0d2529" stroke="#0d2529"></path><path d="M813 76L806 100L845 110Z" fill="#00536f" stroke="#00536f"></path><path d="M588 583L743 540L729 540Z" fill="#00536f" stroke="#00536f"></path><path d="M729 540L743 540L762 499Z" fill="#073742" stroke="#073742"></path><path d="M846 387L848 347L809 402Z" fill="#091313" stroke="#091313"></path><path d="M840 335L844 267L809 289Z" fill="#0d2529" stroke="#0d2529"></path><path d="M850 170L806 100L818 196Z" fill="#0e1c1e" stroke="#0e1c1e"></path><path d="M809 402L840 335L766 343Z" fill="#073742" stroke="#073742"></path><path d="M0 463L86 486L67 443Z" fill="#040505" stroke="#040505"></path><path d="M88 540L69 549L142 540Z" fill="#024050" stroke="#024050"></path><path d="M813 76L702 55L721 115Z" fill="#00536f" stroke="#00536f"></path><path d="M850 170L818 196L833 221Z" fill="#091313" stroke="#091313"></path><path d="M806 100L813 76L721 115Z" fill="#091313" stroke="#091313"></path><path d="M0 51L0 64L40 89Z" fill="#004a5f" stroke="#004a5f"></path><path d="M809 402L870 484L846 387Z" fill="#040505" stroke="#040505"></path><path d="M809 402L848 347L840 335Z" fill="#00536f" stroke="#00536f"></path><path d="M888 301L878 262L844 267Z" fill="#0d2529" stroke="#0d2529"></path><path d="M0 399L0 463L67 443Z" fill="#005c7f" stroke="#005c7f"></path><path d="M884 214L850 170L833 221Z" fill="#0b2e35" stroke="#0b2e35"></path><path d="M878 262L831 231L844 267Z" fill="#00536f" stroke="#00536f"></path><path d="M25 0L0 51L40 89Z" fill="#0d2529" stroke="#0d2529"></path><path d="M810 540L773 451L762 499Z" fill="#09658f" stroke="#09658f"></path><path d="M152 -23L25 0L70 0Z" fill="#024050" stroke="#024050"></path><path d="M70 0L25 0L40 89Z" fill="#024050" stroke="#024050"></path><path d="M850 170L845 110L806 100Z" fill="#040505" stroke="#040505"></path><path d="M813 76L825 0L782 20Z" fill="#0b2e35" stroke="#0b2e35"></path><path d="M-23 0L-29 86L0 51Z" fill="#0b2e35" stroke="#0b2e35"></path><path d="M0 51L-29 86L0 64Z" fill="#00536f" stroke="#00536f"></path><path d="M0 64L-29 86L40 89Z" fill="#040505" stroke="#040505"></path><path d="M0 160L-29 86L0 170Z" fill="#00536f" stroke="#00536f"></path><path d="M0 170L-29 86L0 286Z" fill="#091313" stroke="#091313"></path><path d="M0 286L-41 435L0 325Z" fill="#0d2529" stroke="#0d2529"></path><path d="M0 325L-41 435L0 365Z" fill="#073742" stroke="#073742"></path><path d="M0 365L-41 435L0 369Z" fill="#09658f" stroke="#09658f"></path><path d="M0 369L-41 435L0 399Z" fill="#004a5f" stroke="#004a5f"></path><path d="M0 399L-41 435L0 463Z" fill="#091313" stroke="#091313"></path><path d="M888 301L840 335L848 347Z" fill="#0e1c1e" stroke="#0e1c1e"></path><path d="M888 301L844 267L840 335Z" fill="#073742" stroke="#073742"></path><path d="M850 170L867 131L845 110Z" fill="#005c7f" stroke="#005c7f"></path><path d="M0 463L8 519L86 486Z" fill="#09658f" stroke="#09658f"></path><path d="M-29 86L-41 435L0 286Z" fill="#004a5f" stroke="#004a5f"></path><path d="M0 463L-28 540L8 519Z" fill="#091313" stroke="#091313"></path><path d="M25 0L0 6L0 51Z" fill="#024050" stroke="#024050"></path><path d="M886 148L867 131L850 170Z" fill="#00536f" stroke="#00536f"></path><path d="M870 75L825 0L813 76Z" fill="#073742" stroke="#073742"></path><path d="M878 262L884 214L831 231Z" fill="#024050" stroke="#024050"></path><path d="M-5 -3L0 0L25 0Z" fill="#00536f" stroke="#00536f"></path><path d="M25 0L0 0L0 6Z" fill="#004a5f" stroke="#004a5f"></path><path d="M0 6L-23 0L0 51Z" fill="#00536f" stroke="#00536f"></path><path d="M916 360L888 301L848 347Z" fill="#040505" stroke="#040505"></path><path d="M878 262L891 257L884 214Z" fill="#09658f" stroke="#09658f"></path><path d="M888 301L891 257L878 262Z" fill="#040505" stroke="#040505"></path><path d="M152 -23L-5 -3L25 0Z" fill="#073742" stroke="#073742"></path><path d="M0 0L-5 -3L0 6Z" fill="#0d2529" stroke="#0d2529"></path><path d="M588 583L810 540L743 540Z" fill="#0b2e35" stroke="#0b2e35"></path><path d="M743 540L810 540L762 499Z" fill="#004a5f" stroke="#004a5f"></path><path d="M846 387L916 360L848 347Z" fill="#040505" stroke="#040505"></path><path d="M-28 540L0 540L8 519Z" fill="#040505" stroke="#040505"></path><path d="M8 519L0 540L69 549Z" fill="#0e1c1e" stroke="#0e1c1e"></path><path d="M884 214L886 148L850 170Z" fill="#09658f" stroke="#09658f"></path><path d="M870 75L813 76L845 110Z" fill="#040505" stroke="#040505"></path><path d="M947 150L886 148L884 214Z" fill="#0b2e35" stroke="#0b2e35"></path><path d="M870 75L845 110L867 131Z" fill="#09658f" stroke="#09658f"></path><path d="M782 20L825 0L745 0Z" fill="#09658f" stroke="#09658f"></path><path d="M745 0L960 -15L428 -20Z" fill="#005c7f" stroke="#005c7f"></path><path d="M886 148L870 75L867 131Z" fill="#0b2e35" stroke="#0b2e35"></path><path d="M-5 -3L-23 0L0 6Z" fill="#0e1c1e" stroke="#0e1c1e"></path><path d="M870 484L809 402L773 451Z" fill="#091313" stroke="#091313"></path><path d="M960 239L955 234L891 257Z" fill="#00536f" stroke="#00536f"></path><path d="M-41 435L-28 540L0 463Z" fill="#09658f" stroke="#09658f"></path><path d="M0 540L-28 540L69 549Z" fill="#004a5f" stroke="#004a5f"></path><path d="M810 540L870 484L773 451Z" fill="#005c7f" stroke="#005c7f"></path><path d="M936 365L916 360L893 409Z" fill="#004a5f" stroke="#004a5f"></path><path d="M893 409L916 360L846 387Z" fill="#0d2529" stroke="#0d2529"></path><path d="M891 257L955 234L884 214Z" fill="#073742" stroke="#073742"></path><path d="M960 374L936 365L960 422Z" fill="#005c7f" stroke="#005c7f"></path><path d="M916 360L960 298L888 301Z" fill="#024050" stroke="#024050"></path><path d="M886 148L947 150L870 75Z" fill="#091313" stroke="#091313"></path><path d="M588 583L869 540L810 540Z" fill="#0b2e35" stroke="#0b2e35"></path><path d="M810 540L869 540L870 484Z" fill="#0e1c1e" stroke="#0e1c1e"></path><path d="M870 484L960 422L893 409Z" fill="#005c7f" stroke="#005c7f"></path><path d="M960 239L891 257L960 298Z" fill="#00536f" stroke="#00536f"></path><path d="M960 198L947 150L884 214Z" fill="#0e1c1e" stroke="#0e1c1e"></path><path d="M870 75L906 0L825 0Z" fill="#0e1c1e" stroke="#0e1c1e"></path><path d="M869 540L899 512L870 484Z" fill="#024050" stroke="#024050"></path><path d="M960 298L891 257L888 301Z" fill="#0b2e35" stroke="#0b2e35"></path><path d="M955 234L960 199L884 214Z" fill="#00536f" stroke="#00536f"></path><path d="M960 239L960 235L955 234Z" fill="#0b2e35" stroke="#0b2e35"></path><path d="M960 235L960 226L955 234Z" fill="#073742" stroke="#073742"></path><path d="M960 374L960 298L936 365Z" fill="#040505" stroke="#040505"></path><path d="M936 365L960 298L916 360Z" fill="#00536f" stroke="#00536f"></path><path d="M960 226L960 199L955 234Z" fill="#0b2e35" stroke="#0b2e35"></path><path d="M960 199L960 198L884 214Z" fill="#004a5f" stroke="#004a5f"></path><path d="M962 54L906 0L870 75Z" fill="#09658f" stroke="#09658f"></path><path d="M825 0L960 -15L745 0Z" fill="#024050" stroke="#024050"></path><path d="M960 198L960 152L947 150Z" fill="#0b2e35" stroke="#0b2e35"></path><path d="M979 105L962 54L870 75Z" fill="#024050" stroke="#024050"></path><path d="M960 422L936 365L893 409Z" fill="#0d2529" stroke="#0d2529"></path><path d="M960 199L980 263L960 198Z" fill="#09658f" stroke="#09658f"></path><path d="M960 198L979 105L960 152Z" fill="#0d2529" stroke="#0d2529"></path><path d="M960 226L980 263L960 199Z" fill="#09658f" stroke="#09658f"></path><path d="M960 235L980 263L960 226Z" fill="#005c7f" stroke="#005c7f"></path><path d="M960 239L980 263L960 235Z" fill="#09658f" stroke="#09658f"></path><path d="M960 298L980 263L960 239Z" fill="#024050" stroke="#024050"></path><path d="M1001 364L980 263L960 298Z" fill="#024050" stroke="#024050"></path><path d="M899 512L960 422L870 484Z" fill="#00536f" stroke="#00536f"></path><path d="M960 374L1001 364L960 298Z" fill="#0d2529" stroke="#0d2529"></path><path d="M979 105L947 150L960 152Z" fill="#0b2e35" stroke="#0b2e35"></path><path d="M979 105L870 75L947 150Z" fill="#091313" stroke="#091313"></path><path d="M980 263L979 105L960 198Z" fill="#09658f" stroke="#09658f"></path><path d="M997 546L1001 364L960 422Z" fill="#0d2529" stroke="#0d2529"></path><path d="M960 422L1001 364L960 374Z" fill="#091313" stroke="#091313"></path><path d="M980 263L1001 364L979 105Z" fill="#00536f" stroke="#00536f"></path><path d="M953 540L960 503L899 512Z" fill="#09658f" stroke="#09658f"></path><path d="M899 512L960 503L960 422Z" fill="#024050" stroke="#024050"></path><path d="M972 0L960 0L962 54Z" fill="#073742" stroke="#073742"></path><path d="M962 54L960 0L906 0Z" fill="#0b2e35" stroke="#0b2e35"></path><path d="M906 0L960 -15L825 0Z" fill="#091313" stroke="#091313"></path><path d="M869 540L953 540L899 512Z" fill="#09658f" stroke="#09658f"></path><path d="M960 503L997 546L960 422Z" fill="#005c7f" stroke="#005c7f"></path><path d="M997 546L953 540L869 540Z" fill="#005c7f" stroke="#005c7f"></path><path d="M972 0L960 -15L960 0Z" fill="#0d2529" stroke="#0d2529"></path><path d="M960 0L960 -15L906 0Z" fill="#091313" stroke="#091313"></path><path d="M428 -20L960 -15L152 -23Z" fill="#091313" stroke="#091313"></path><path d="M997 546L960 540L953 540Z" fill="#040505" stroke="#040505"></path><path d="M953 540L960 540L960 503Z" fill="#024050" stroke="#024050"></path><path d="M1001 364L972 0L979 105Z" fill="#0b2e35" stroke="#0b2e35"></path><path d="M979 105L972 0L962 54Z" fill="#0b2e35" stroke="#0b2e35"></path><path d="M960 540L997 546L960 503Z" fill="#091313" stroke="#091313"></path><path d="M588 583L997 546L869 540Z" fill="#09658f" stroke="#09658f"></path></g></svg>