<svg id="visual" viewBox="0 0 960 540" width="960" height="540" xmlns="http://www.w3.org/2000/svg" xmlns:xlink="http://www.w3.org/1999/xlink" version="1.1"><g stroke-width="1" stroke-linejoin="bevel"><path d="M434.7 268L517.3 194L424.7 196Z" fill="#112e42" stroke="#112e42"></path><path d="M434.7 268L539.3 265L517.3 194Z" fill="#19435d" stroke="#19435d"></path><path d="M333 354L431.7 354L434.7 268Z" fill="#277297" stroke="#277297"></path><path d="M434.7 268L516.3 373L539.3 265Z" fill="#297ea6" stroke="#297ea6"></path><path d="M517.3 194L415.7 84L424.7 196Z" fill="#277297" stroke="#277297"></path><path d="M424.7 196L311 258L434.7 268Z" fill="#205a7a" stroke="#205a7a"></path><path d="M431.7 354L516.3 373L434.7 268Z" fill="#297ea6" stroke="#297ea6"></path><path d="M635 196L544.3 86L517.3 194Z" fill="#246688" stroke="#246688"></path><path d="M517.3 194L544.3 86L415.7 84Z" fill="#246688" stroke="#246688"></path><path d="M319 164L311 258L424.7 196Z" fill="#00101c" stroke="#00101c"></path><path d="M415.7 84L319 164L424.7 196Z" fill="#00101c" stroke="#00101c"></path><path d="M652 253L635 196L539.3 265Z" fill="#00101c" stroke="#00101c"></path><path d="M539.3 265L635 196L517.3 194Z" fill="#15384f" stroke="#15384f"></path><path d="M630 376L652 253L539.3 265Z" fill="#297ea6" stroke="#297ea6"></path><path d="M311 258L333 354L434.7 268Z" fill="#277297" stroke="#277297"></path><path d="M431.7 354L430.7 442L516.3 373Z" fill="#246688" stroke="#246688"></path><path d="M415.7 84L326 91L319 164Z" fill="#15384f" stroke="#15384f"></path><path d="M516.3 373L630 376L539.3 265Z" fill="#19435d" stroke="#19435d"></path><path d="M333 354L430.7 442L431.7 354Z" fill="#277297" stroke="#277297"></path><path d="M516.3 373L544.3 448L630 376Z" fill="#00101c" stroke="#00101c"></path><path d="M516.3 0L437.7 0L415.7 84Z" fill="#246688" stroke="#246688"></path><path d="M415.7 84L329 0L326 91Z" fill="#297ea6" stroke="#297ea6"></path><path d="M650 0L516.3 0L544.3 86Z" fill="#297ea6" stroke="#297ea6"></path><path d="M544.3 86L516.3 0L415.7 84Z" fill="#00101c" stroke="#00101c"></path><path d="M732.7 193L652 82L635 196Z" fill="#0c2435" stroke="#0c2435"></path><path d="M635 196L652 82L544.3 86Z" fill="#19435d" stroke="#19435d"></path><path d="M430.7 442L544.3 448L516.3 373Z" fill="#19435d" stroke="#19435d"></path><path d="M754.7 255L732.7 193L652 253Z" fill="#1d4e6b" stroke="#1d4e6b"></path><path d="M652 253L732.7 193L635 196Z" fill="#112e42" stroke="#112e42"></path><path d="M333 354L330 450L430.7 442Z" fill="#00101c" stroke="#00101c"></path><path d="M430.7 442L517.3 540L544.3 448Z" fill="#00101c" stroke="#00101c"></path><path d="M222.3 466L330 450L333 354Z" fill="#15384f" stroke="#15384f"></path><path d="M199.3 104L208.3 194L319 164Z" fill="#205a7a" stroke="#205a7a"></path><path d="M319 164L208.3 194L311 258Z" fill="#205a7a" stroke="#205a7a"></path><path d="M311 258L202.3 282L333 354Z" fill="#081a28" stroke="#081a28"></path><path d="M437.7 0L329 0L415.7 84Z" fill="#297ea6" stroke="#297ea6"></path><path d="M326 91L199.3 104L319 164Z" fill="#081a28" stroke="#081a28"></path><path d="M208.3 194L202.3 282L311 258Z" fill="#081a28" stroke="#081a28"></path><path d="M544.3 448L643 443L630 376Z" fill="#081a28" stroke="#081a28"></path><path d="M759.7 374L754.7 255L652 253Z" fill="#081a28" stroke="#081a28"></path><path d="M759.7 374L652 253L630 376Z" fill="#297ea6" stroke="#297ea6"></path><path d="M733.7 0L650 0L652 82Z" fill="#081a28" stroke="#081a28"></path><path d="M652 82L650 0L544.3 86Z" fill="#205a7a" stroke="#205a7a"></path><path d="M229.3 0L199.3 104L326 91Z" fill="#112e42" stroke="#112e42"></path><path d="M208.3 194L110.7 260L202.3 282Z" fill="#246688" stroke="#246688"></path><path d="M108.7 360L201.3 355L202.3 282Z" fill="#081a28" stroke="#081a28"></path><path d="M202.3 282L201.3 355L333 354Z" fill="#112e42" stroke="#112e42"></path><path d="M330 450L434.7 540L430.7 442Z" fill="#15384f" stroke="#15384f"></path><path d="M544.3 448L651 540L643 443Z" fill="#15384f" stroke="#15384f"></path><path d="M325 540L434.7 540L330 450Z" fill="#112e42" stroke="#112e42"></path><path d="M434.7 540L517.3 540L430.7 442Z" fill="#00101c" stroke="#00101c"></path><path d="M732.7 193L756.7 77L652 82Z" fill="#00101c" stroke="#00101c"></path><path d="M840.3 105L756.7 77L732.7 193Z" fill="#205a7a" stroke="#205a7a"></path><path d="M736.7 460L759.7 374L643 443Z" fill="#081a28" stroke="#081a28"></path><path d="M643 443L759.7 374L630 376Z" fill="#205a7a" stroke="#205a7a"></path><path d="M754.7 255L842.3 183L732.7 193Z" fill="#205a7a" stroke="#205a7a"></path><path d="M329 0L229.3 0L326 91Z" fill="#246688" stroke="#246688"></path><path d="M201.3 355L222.3 466L333 354Z" fill="#00101c" stroke="#00101c"></path><path d="M756.7 77L733.7 0L652 82Z" fill="#0c2435" stroke="#0c2435"></path><path d="M222.3 466L325 540L330 450Z" fill="#0c2435" stroke="#0c2435"></path><path d="M102.7 77L122.7 181L199.3 104Z" fill="#081a28" stroke="#081a28"></path><path d="M199.3 104L122.7 181L208.3 194Z" fill="#15384f" stroke="#15384f"></path><path d="M201.3 355L92.7 447L222.3 466Z" fill="#246688" stroke="#246688"></path><path d="M651 540L736.7 460L643 443Z" fill="#277297" stroke="#277297"></path><path d="M517.3 540L651 540L544.3 448Z" fill="#112e42" stroke="#112e42"></path><path d="M122.7 181L110.7 260L208.3 194Z" fill="#0c2435" stroke="#0c2435"></path><path d="M842.3 272L754.7 255L759.7 374Z" fill="#246688" stroke="#246688"></path><path d="M842.3 272L842.3 183L754.7 255Z" fill="#0c2435" stroke="#0c2435"></path><path d="M756.7 77L867.3 0L733.7 0Z" fill="#112e42" stroke="#112e42"></path><path d="M866.3 353L842.3 272L759.7 374Z" fill="#19435d" stroke="#19435d"></path><path d="M110.7 260L108.7 360L202.3 282Z" fill="#19435d" stroke="#19435d"></path><path d="M842.3 183L840.3 105L732.7 193Z" fill="#15384f" stroke="#15384f"></path><path d="M103.7 0L102.7 77L199.3 104Z" fill="#15384f" stroke="#15384f"></path><path d="M122.7 181L0 180L110.7 260Z" fill="#1d4e6b" stroke="#1d4e6b"></path><path d="M0 361L92.7 447L108.7 360Z" fill="#19435d" stroke="#19435d"></path><path d="M651 540L731.7 540L736.7 460Z" fill="#205a7a" stroke="#205a7a"></path><path d="M864.3 456L866.3 353L759.7 374Z" fill="#00101c" stroke="#00101c"></path><path d="M100.7 540L206.3 540L222.3 466Z" fill="#00101c" stroke="#00101c"></path><path d="M222.3 466L206.3 540L325 540Z" fill="#277297" stroke="#277297"></path><path d="M864.3 456L759.7 374L736.7 460Z" fill="#277297" stroke="#277297"></path><path d="M842.3 272L960 253L842.3 183Z" fill="#15384f" stroke="#15384f"></path><path d="M960 94L867.3 0L840.3 105Z" fill="#1d4e6b" stroke="#1d4e6b"></path><path d="M229.3 0L103.7 0L199.3 104Z" fill="#277297" stroke="#277297"></path><path d="M0 286L108.7 360L110.7 260Z" fill="#112e42" stroke="#112e42"></path><path d="M108.7 360L92.7 447L201.3 355Z" fill="#1d4e6b" stroke="#1d4e6b"></path><path d="M0 180L122.7 181L102.7 77Z" fill="#112e42" stroke="#112e42"></path><path d="M847.3 540L864.3 456L736.7 460Z" fill="#19435d" stroke="#19435d"></path><path d="M960 177L840.3 105L842.3 183Z" fill="#19435d" stroke="#19435d"></path><path d="M840.3 105L867.3 0L756.7 77Z" fill="#297ea6" stroke="#297ea6"></path><path d="M0 78L0 180L102.7 77Z" fill="#15384f" stroke="#15384f"></path><path d="M0 180L0 286L110.7 260Z" fill="#205a7a" stroke="#205a7a"></path><path d="M92.7 447L100.7 540L222.3 466Z" fill="#205a7a" stroke="#205a7a"></path><path d="M0 540L100.7 540L92.7 447Z" fill="#081a28" stroke="#081a28"></path><path d="M960 345L960 253L866.3 353Z" fill="#15384f" stroke="#15384f"></path><path d="M866.3 353L960 253L842.3 272Z" fill="#081a28" stroke="#081a28"></path><path d="M731.7 540L847.3 540L736.7 460Z" fill="#15384f" stroke="#15384f"></path><path d="M960 460L960 345L866.3 353Z" fill="#081a28" stroke="#081a28"></path><path d="M0 286L0 361L108.7 360Z" fill="#297ea6" stroke="#297ea6"></path><path d="M960 253L960 177L842.3 183Z" fill="#00101c" stroke="#00101c"></path><path d="M0 0L0 78L102.7 77Z" fill="#0c2435" stroke="#0c2435"></path><path d="M960 460L866.3 353L864.3 456Z" fill="#1d4e6b" stroke="#1d4e6b"></path><path d="M960 177L960 94L840.3 105Z" fill="#297ea6" stroke="#297ea6"></path><path d="M0 361L0 441L92.7 447Z" fill="#1d4e6b" stroke="#1d4e6b"></path><path d="M103.7 0L0 0L102.7 77Z" fill="#19435d" stroke="#19435d"></path><path d="M960 94L960 0L867.3 0Z" fill="#081a28" stroke="#081a28"></path><path d="M960 540L960 460L864.3 456Z" fill="#246688" stroke="#246688"></path><path d="M0 441L0 540L92.7 447Z" fill="#246688" stroke="#246688"></path><path d="M847.3 540L960 540L864.3 456Z" fill="#0c2435" stroke="#0c2435"></path></g></svg>